<svg width="28" height="28" viewBox="0 0 28 28" fill="none" xmlns="http://www.w3.org/2000/svg">
<path d="M23.9226 9H25.25C26.6308 9 27.75 10.1193 27.75 11.5V16.5C27.75 17.8808 26.6308 19 25.25 19H23.9226C23.3075 23.9329 19.0995 27.75 14 27.75V25.25C18.1421 25.25 21.5 21.8921 21.5 17.75V10.25C21.5 6.10786 18.1421 2.75 14 2.75C9.85786 2.75 6.5 6.10786 6.5 10.25V19H2.75C1.36929 19 0.25 17.8808 0.25 16.5V11.5C0.25 10.1193 1.36929 9 2.75 9H4.07736C4.69249 4.06711 8.90048 0.25 14 0.25C19.0995 0.25 23.3075 4.06711 23.9226 9ZM2.75 11.5V16.5H4V11.5H2.75ZM24 11.5V16.5H25.25V11.5H24ZM8.6993 18.7311L10.0245 16.6109C11.177 17.3328 12.5398 17.75 14 17.75C15.4602 17.75 16.823 17.3328 17.9755 16.6109L19.3008 18.7311C17.764 19.6936 15.947 20.25 14 20.25C12.053 20.25 10.236 19.6936 8.6993 18.7311Z" fill="#ADADAD"/>
</svg>
